<?xml version="1.0" encoding="UTF-8"?>
<svg xmlns="http://www.w3.org/2000/svg" version="1.1" viewBox="0 0 200 200">
  <defs>
    <style>
      .cls-1 {
        fill: #040000;
      }

      .cls-1, .cls-2 {
        stroke: #040000;
        stroke-miterlimit: 10;
      }

      .cls-2 {
        fill: #fff;
      }
    </style>
  </defs>
  <!-- Generator: Adobe Illustrator 28.6.0, SVG Export Plug-In . SVG Version: 1.2.0 Build 709)  -->
  <g>
    <g id="_레이어_1" data-name="레이어_1">
      <g>
        <path class="cls-2" d="M114.14,190.59c50.93-7.81,85.89-55.43,78.08-106.36C184.42,33.29,136.79-1.67,85.86,6.14S-.03,61.57,7.78,112.5s55.43,85.89,106.36,78.08ZM136.03,153.8c-10.61,1.63-20.53-5.66-22.16-16.27-1.63-10.61,5.66-20.53,16.27-22.16,10.61-1.63,20.53,5.66,22.16,16.27,1.63,10.61-5.66,20.53-16.27,22.16ZM145.54,61.88c11.67-1.79,22.59,6.22,24.37,17.89,1.79,11.67-6.22,22.59-17.89,24.37s-22.59-6.22-24.37-17.89c-1.79-11.67,6.22-22.59,17.89-24.37ZM100.26,29.49c10.08-1.55,19.51,5.37,21.05,15.45s-5.37,19.51-15.45,21.05c-10.08,1.55-19.51-5.37-21.05-15.45-1.55-10.08,5.37-19.51,15.45-21.05ZM90.23,137.22c1.79,11.67-6.22,22.59-17.89,24.37-11.67,1.79-22.59-6.22-24.37-17.89-1.79-11.67,6.22-22.59,17.89-24.37,11.67-1.79,22.59,6.22,24.37,17.89ZM47.11,61.24c11.67-1.79,22.59,6.22,24.37,17.89s-6.22,22.59-17.89,24.37-22.59-6.22-24.37-17.89c-1.79-11.67,6.22-22.59,17.89-24.37Z"/>
        <path class="cls-1" d="M43,172.19c-15.33-13.76-26.17-32.71-29.53-54.66C5.74,67.13,40.33,20,90.73,12.27c35.01-5.37,68.42,9.7,88.17,36.28C159.68,18.15,123.69.34,85.86,6.14,34.93,13.95-.03,61.57,7.78,112.5c3.78,24.66,16.91,45.56,35.22,59.69Z"/>
      </g>
    </g>
  </g>
</svg>